<svg width="24" height="24" viewBox="0 0 24 24" fill="none" xmlns="http://www.w3.org/2000/svg">
<path d="M12.1679 0.00111497C5.41933 -0.0900347 -0.0900347 5.41933 0.00111497 12.1679C0.0911108 18.6401 5.36106 23.91 11.8333 24C18.583 24.0923 24.0912 18.583 23.9989 11.8344C23.91 5.36106 18.6401 0.0911108 12.1679 0.00111497ZM19.461 18.8801C19.438 18.9049 19.4098 18.9244 19.3785 18.9371C19.3471 18.9499 19.3134 18.9556 19.2796 18.9538C19.2458 18.9521 19.2127 18.9429 19.1829 18.927C19.153 18.911 19.127 18.8887 19.1068 18.8616C18.5908 18.1865 17.9588 17.6085 17.2405 17.1546C15.7717 16.2119 13.9107 15.6927 12.0006 15.6927C10.0905 15.6927 8.22939 16.2119 6.76061 17.1546C6.0423 17.6083 5.41038 18.1861 4.89435 18.861C4.87408 18.8881 4.84809 18.9104 4.81823 18.9264C4.78837 18.9423 4.75537 18.9515 4.72157 18.9533C4.68777 18.955 4.65399 18.9493 4.62264 18.9366C4.59128 18.9238 4.56312 18.9043 4.54014 18.8795C2.84733 17.0521 1.88843 14.6643 1.84718 12.1736C1.75315 6.55985 6.35967 1.86103 11.9758 1.84718C17.5918 1.83334 22.1539 6.3937 22.1539 12.0006C22.1559 14.5513 21.194 17.0085 19.461 18.8801Z" fill="black"/>
<path d="M12.0006 5.53934C10.863 5.53934 9.83437 5.96566 9.10344 6.74044C8.37251 7.51521 8.00734 8.5865 8.08984 9.73626C8.25714 12.0006 10.0115 13.8466 12.0006 13.8466C13.9898 13.8466 15.7406 12.0006 15.9114 9.73684C15.9968 8.59804 15.6345 7.53655 14.8914 6.74736C14.1576 5.96855 13.1308 5.53934 12.0006 5.53934Z" fill="black"/>
</svg>
