<svg width="20" height="23" viewBox="0 0 20 23" fill="none" xmlns="http://www.w3.org/2000/svg">
<path d="M2.875 14.5H1.375C1.16789 14.5 1 14.6679 1 14.875V21.625C1 21.8321 1.16789 22 1.375 22H2.875C3.08211 22 3.25 21.8321 3.25 21.625V14.875C3.25 14.6679 3.08211 14.5 2.875 14.5Z" stroke="black" stroke-width="2" stroke-linecap="round" stroke-linejoin="round"/>
<path d="M13.375 10H11.875C11.6679 10 11.5 10.1679 11.5 10.375V21.625C11.5 21.8321 11.6679 22 11.875 22H13.375C13.5821 22 13.75 21.8321 13.75 21.625V10.375C13.75 10.1679 13.5821 10 13.375 10Z" stroke="black" stroke-width="2" stroke-linecap="round" stroke-linejoin="round"/>
<path d="M18.625 4.75H17.125C16.9179 4.75 16.75 4.91789 16.75 5.125V21.625C16.75 21.8321 16.9179 22 17.125 22H18.625C18.8321 22 19 21.8321 19 21.625V5.125C19 4.91789 18.8321 4.75 18.625 4.75Z" stroke="black" stroke-width="2" stroke-linecap="round" stroke-linejoin="round"/>
<path d="M8.125 1H6.625C6.41789 1 6.25 1.16789 6.25 1.375V21.625C6.25 21.8321 6.41789 22 6.625 22H8.125C8.33211 22 8.5 21.8321 8.5 21.625V1.375C8.5 1.16789 8.33211 1 8.125 1Z" stroke="black" stroke-width="2" stroke-linecap="round" stroke-linejoin="round"/>
</svg>
