<svg width="22" height="20" viewBox="0 0 22 20" fill="none" xmlns="http://www.w3.org/2000/svg">
<path d="M1.95631 7C1.70424 6.99974 1.46228 7.09912 1.28316 7.27649C1.10404 7.45385 1.00228 7.69481 1.00006 7.94688C0.999035 8.03424 1.01169 8.12123 1.03756 8.20469L3.46099 16.75C3.57332 17.1492 3.81336 17.5005 4.14438 17.7503C4.4754 18 4.87915 18.1344 5.29381 18.1328H16.2063C16.6218 18.1332 17.0261 17.9985 17.3584 17.7491C17.6906 17.4997 17.9328 17.149 18.0485 16.75L20.4719 8.20469L20.5001 7.94688C20.4978 7.69481 20.3961 7.45385 20.217 7.27649C20.0378 7.09912 19.7959 6.99974 19.5438 7H1.95631ZM11.0182 14.5033C10.6286 14.5013 10.2483 14.384 9.92528 14.1662C9.60227 13.9483 9.35105 13.6396 9.2033 13.2791C9.05555 12.9186 9.0179 12.5224 9.09509 12.1405C9.17229 11.7586 9.36088 11.4082 9.63706 11.1334C9.91325 10.8586 10.2646 10.6717 10.6469 10.5964C11.0292 10.5211 11.4252 10.5607 11.7849 10.7103C12.1447 10.8598 12.4521 11.1126 12.6684 11.4367C12.8846 11.7608 13.0001 12.1416 13.0001 12.5313C12.9976 13.0552 12.7877 13.5569 12.4162 13.9264C12.0448 14.296 11.5421 14.5034 11.0182 14.5033V14.5033Z" stroke="black" stroke-width="2" stroke-linejoin="round"/>
<path d="M6.25 7L10.75 1L15.25 7" stroke="black" stroke-width="2" stroke-linejoin="round"/>
</svg>
