<svg width="24" height="24" viewBox="0 0 24 24" fill="none" xmlns="http://www.w3.org/2000/svg">
<g id="&#208;&#159;&#208;&#176;&#208;&#191;&#208;&#186;&#208;&#176;">
<path id="Icon" d="M18.1765 8.25V8.08C18.1765 6.65187 18.1765 5.9378 17.9072 5.39232C17.6703 4.91251 17.2924 4.52241 16.8275 4.27793C16.299 4 15.6072 4 14.2235 4H8.95294C7.56928 4 6.87745 4 6.34896 4.27793C5.88409 4.52241 5.50614 4.91251 5.26928 5.39232C5 5.9378 5 6.65187 5 8.08V16.92C5 18.3481 5 19.0622 5.26928 19.6077C5.50614 20.0875 5.88409 20.4776 6.34896 20.7221C6.87745 21 7.56928 21 8.95294 21H12M16.5294 17.6V12.925C16.5294 12.2208 17.0825 11.65 17.7647 11.65C18.4469 11.65 19 12.2208 19 12.925V17.6C19 19.0083 17.8939 20.15 16.5294 20.15C15.1649 20.15 14.0588 19.0083 14.0588 17.6V14.2" stroke="#7E8892" stroke-width="1.5" stroke-linecap="round" stroke-linejoin="round"/>
</g>
</svg>
