<svg width="23" height="18" viewBox="0 0 23 18" fill="none" xmlns="http://www.w3.org/2000/svg">
<path d="M11.0513 11.4026C14.5106 11.521 16.2177 12.0997 19.0172 17.6639C20.4382 17.6639 20.4715 17.6639 22.103 17.6639C19.0172 10.7198 16.1561 8.85024 11.0513 8.85024C11.0513 9.70029 11.0513 10.1947 11.0513 11.4026Z" fill="#02FDD2"/>
<path d="M0.000183153 11.4026C3.45945 11.521 5.16661 12.0997 7.96611 17.6639C9.38704 17.6639 9.42041 17.6639 11.0519 17.6639C7.96611 10.7198 5.105 8.85024 0.000183153 8.85024C0.000201786 9.70029 0.000182023 10.1947 0.000183153 11.4026Z" fill="#02FDD2"/>
<path d="M22.1035 6.2978C18.6443 6.1794 16.9371 5.60072 14.1376 0.0365681C12.7167 0.0365634 12.6833 0.0365526 11.0518 0.0365681C14.1376 6.98064 16.9987 8.85019 22.1035 8.85019C22.1035 8.00015 22.1035 7.50576 22.1035 6.2978Z" fill="#02FDD2"/>
<path d="M11.0517 6.2978C7.5924 6.1794 5.88524 5.60072 3.08574 0.0365681C1.66481 0.0365634 1.63144 0.0365526 -9.53674e-07 0.0365681C3.08574 6.98064 5.94685 8.85019 11.0517 8.85019C11.0516 8.00015 11.0517 7.50576 11.0517 6.2978Z" fill="#02FDD2"/>
</svg>
