<svg width="88" height="25" viewBox="0 0 88 25" fill="none" xmlns="http://www.w3.org/2000/svg">
<path d="M81.1612 7.9145C79.8911 7.9145 78.4908 7.6241 76.7323 3.71985C75.853 3.71985 75.332 3.71984 74.3225 3.71985C76.3089 8.26943 78.0023 10.0764 81.1612 10.0764C81.1612 9.46329 81.1612 8.7857 81.1612 7.9145Z" fill="#04010C"/>
<path d="M81.1612 7.9145C82.4312 7.9145 83.8315 7.6241 85.59 3.71985C86.4693 3.71985 86.9903 3.71984 87.9999 3.71985C86.0134 8.26943 84.32 10.0764 81.1612 10.0764C81.1612 9.46329 81.1612 8.7857 81.1612 7.9145Z" fill="#04010C"/>
<path d="M81.1612 13.4643C79.8911 13.4643 78.4908 13.7547 76.7323 17.659C75.853 17.659 75.332 17.659 74.3225 17.659C76.3089 13.1094 78.0023 11.3025 81.1612 11.3025C81.1612 11.9156 81.1612 12.5932 81.1612 13.4643Z" fill="#04010C"/>
<path d="M81.1612 13.4643C82.4312 13.4643 83.8315 13.7547 85.59 17.659C86.4693 17.659 86.9903 17.659 87.9999 17.659C86.0134 13.1094 84.32 11.3025 81.1612 11.3025C81.1612 11.9156 81.1612 12.5932 81.1612 13.4643Z" fill="#04010C"/>
<path d="M39.3915 13.6792H31.5904L30.1534 17.6202H27.6899L34.1566 0H36.851L43.292 17.6202H40.8285L39.3915 13.6792ZM38.7243 11.7977L35.491 2.84771L32.2576 11.7977H38.7243Z" fill="#04010C"/>
<path d="M48.4456 3.68677V17.6202H46.1104V3.68677H48.4456Z" fill="#04010C"/>
<path d="M54.7607 6.2548C55.2226 5.45812 55.9069 4.79704 56.8136 4.27157C57.7374 3.72915 58.8066 3.45794 60.0213 3.45794C61.2701 3.45794 62.3992 3.75457 63.4086 4.34785C64.435 4.94112 65.2391 5.78018 65.8208 6.86502C66.4024 7.93291 66.6933 9.17879 66.6933 10.6026C66.6933 12.0095 66.4024 13.2639 65.8208 14.3657C65.2391 15.4675 64.435 16.3235 63.4086 16.9337C62.3992 17.5439 61.2701 17.8491 60.0213 17.8491C58.8237 17.8491 57.7631 17.5863 56.8393 17.0609C55.9326 16.5184 55.2397 15.8489 54.7607 15.0522V24.231H52.4255V3.68677H54.7607V6.2548ZM64.3067 10.6026C64.3067 9.5517 64.0929 8.63637 63.6652 7.85664C63.2375 7.0769 62.6559 6.48363 61.9202 6.07681C61.2017 5.67 60.4062 5.46659 59.5337 5.46659C58.6783 5.46659 57.8828 5.67847 57.1472 6.10224C56.4287 6.50906 55.847 7.11081 55.4022 7.90749C54.9745 8.68722 54.7607 9.59408 54.7607 10.6281C54.7607 11.679 54.9745 12.6028 55.4022 13.3995C55.847 14.1792 56.4287 14.781 57.1472 15.2048C57.8828 15.6116 58.6783 15.815 59.5337 15.815C60.4062 15.815 61.2017 15.6116 61.9202 15.2048C62.6559 14.781 63.2375 14.1792 63.6652 13.3995C64.0929 12.6028 64.3067 11.6705 64.3067 10.6026Z" fill="#04010C"/>
<path d="M72.1022 3.68677V17.6202H69.767V3.68677H72.1022Z" fill="#04010C"/>
<path d="M11.0513 11.4026C14.5106 11.521 16.2177 12.0997 19.0172 17.6639C20.4382 17.6639 20.4715 17.6639 22.103 17.6639C19.0172 10.7198 16.1561 8.85024 11.0513 8.85024C11.0513 9.70029 11.0513 10.1947 11.0513 11.4026Z" fill="#02FDD2"/>
<path d="M0.000183153 11.4026C3.45945 11.521 5.16661 12.0997 7.96611 17.6639C9.38704 17.6639 9.42041 17.6639 11.0519 17.6639C7.96611 10.7198 5.105 8.85024 0.000183153 8.85024C0.000201786 9.70029 0.000182023 10.1947 0.000183153 11.4026Z" fill="#02FDD2"/>
<path d="M22.1035 6.2978C18.6443 6.1794 16.9371 5.60072 14.1376 0.0365681C12.7167 0.0365634 12.6833 0.0365526 11.0518 0.0365681C14.1376 6.98064 16.9987 8.85019 22.1035 8.85019C22.1035 8.00015 22.1035 7.50576 22.1035 6.2978Z" fill="#02FDD2"/>
<path d="M11.0517 6.2978C7.5924 6.1794 5.88524 5.60072 3.08574 0.0365681C1.66481 0.0365634 1.63144 0.0365526 -9.53674e-07 0.0365681C3.08574 6.98064 5.94685 8.85019 11.0517 8.85019C11.0516 8.00015 11.0517 7.50576 11.0517 6.2978Z" fill="#02FDD2"/>
</svg>
