<svg width="61" height="25" viewBox="0 0 61 25" fill="none" xmlns="http://www.w3.org/2000/svg">
<path d="M54.1612 7.9145C52.8911 7.9145 51.4908 7.6241 49.7323 3.71985C48.853 3.71985 48.332 3.71984 47.3225 3.71985C49.3089 8.26943 51.0023 10.0764 54.1612 10.0764C54.1612 9.46329 54.1612 8.7857 54.1612 7.9145Z" fill="#04010C"/>
<path d="M54.1612 7.9145C55.4312 7.9145 56.8315 7.6241 58.59 3.71985C59.4693 3.71985 59.9903 3.71984 60.9999 3.71985C59.0134 8.26943 57.32 10.0764 54.1612 10.0764C54.1612 9.46329 54.1612 8.7857 54.1612 7.9145Z" fill="#04010C"/>
<path d="M54.1612 13.4643C52.8911 13.4643 51.4908 13.7547 49.7323 17.659C48.853 17.659 48.332 17.659 47.3225 17.659C49.3089 13.1094 51.0023 11.3025 54.1612 11.3025C54.1612 11.9156 54.1612 12.5932 54.1612 13.4643Z" fill="#04010C"/>
<path d="M54.1612 13.4643C55.4312 13.4643 56.8315 13.7547 58.59 17.659C59.4693 17.659 59.9903 17.659 60.9999 17.659C59.0134 13.1094 57.32 11.3025 54.1612 11.3025C54.1612 11.9156 54.1612 12.5932 54.1612 13.4643Z" fill="#04010C"/>
<path d="M12.3915 13.6792H4.59042L3.15338 17.6202H0.68988L7.15656 0H9.85101L16.292 17.6202H13.8285L12.3915 13.6792ZM11.7243 11.7977L8.49096 2.84771L5.25762 11.7977H11.7243Z" fill="#04010C"/>
<path d="M21.4456 3.68677V17.6202H19.1104V3.68677H21.4456Z" fill="#04010C"/>
<path d="M27.7607 6.2548C28.2226 5.45812 28.9069 4.79704 29.8136 4.27157C30.7374 3.72915 31.8066 3.45794 33.0213 3.45794C34.2701 3.45794 35.3992 3.75457 36.4086 4.34785C37.435 4.94112 38.2391 5.78018 38.8208 6.86502C39.4024 7.93291 39.6933 9.17879 39.6933 10.6026C39.6933 12.0095 39.4024 13.2639 38.8208 14.3657C38.2391 15.4675 37.435 16.3235 36.4086 16.9337C35.3992 17.5439 34.2701 17.8491 33.0213 17.8491C31.8237 17.8491 30.7631 17.5863 29.8393 17.0609C28.9326 16.5184 28.2397 15.8489 27.7607 15.0522V24.231H25.4255V3.68677H27.7607V6.2548ZM37.3067 10.6026C37.3067 9.5517 37.0929 8.63637 36.6652 7.85664C36.2375 7.0769 35.6559 6.48363 34.9202 6.07681C34.2017 5.67 33.4062 5.46659 32.5337 5.46659C31.6783 5.46659 30.8828 5.67847 30.1472 6.10224C29.4287 6.50906 28.847 7.11081 28.4022 7.90749C27.9745 8.68722 27.7607 9.59408 27.7607 10.6281C27.7607 11.679 27.9745 12.6028 28.4022 13.3995C28.847 14.1792 29.4287 14.781 30.1472 15.2048C30.8828 15.6116 31.6783 15.815 32.5337 15.815C33.4062 15.815 34.2017 15.6116 34.9202 15.2048C35.6559 14.781 36.2375 14.1792 36.6652 13.3995C37.0929 12.6028 37.3067 11.6705 37.3067 10.6026Z" fill="#04010C"/>
<path d="M45.1022 3.68677V17.6202H42.767V3.68677H45.1022Z" fill="#04010C"/>
</svg>
