<svg width="16" height="16" viewBox="0 0 16 16" fill="none" xmlns="http://www.w3.org/2000/svg">
<g id="Frame 277132284">
<path id="Icon" d="M3 5.60026C3 4.69008 3 4.235 3.18166 3.88735C3.34144 3.58156 3.59641 3.33294 3.91002 3.17713C4.26654 3 4.73325 3 5.66667 3H10.3333C11.2668 3 11.7335 3 12.09 3.17713C12.4036 3.33294 12.6586 3.58156 12.8183 3.88735C13 4.235 13 4.69008 13 5.60026V8.52555C13 9.43573 13 9.89082 12.8183 10.2385C12.6586 10.5443 12.4036 10.7929 12.09 10.9487C11.7335 11.1258 11.2668 11.1258 10.3333 11.1258H8.93542C8.58872 11.1258 8.41537 11.1258 8.24956 11.159C8.10246 11.1884 7.96011 11.2371 7.82638 11.3037C7.67565 11.3788 7.54029 11.4844 7.26956 11.6956L5.94431 12.7294C5.71315 12.9097 5.59757 12.9999 5.5003 13C5.41571 13.0001 5.33568 12.9626 5.2829 12.8981C5.22222 12.824 5.22222 12.6797 5.22222 12.391V11.1258C4.70557 11.1258 4.44725 11.1258 4.2353 11.0704C3.66015 10.9202 3.2109 10.4821 3.05679 9.92127C3 9.71461 3 9.46272 3 8.95893V5.60026Z" stroke="#7E8892" stroke-width="1.5" stroke-linecap="round" stroke-linejoin="round"/>
</g>
</svg>
