<svg width="24" height="24" viewBox="0 0 24 24" fill="none" xmlns="http://www.w3.org/2000/svg">
<g id="&#208;&#159;&#208;&#176;&#208;&#191;&#208;&#186;&#208;&#176;" opacity="0.5">
<path id="Icon" d="M3.22769 4.2984C3.04622 3.75164 2.95548 3.47827 3.02153 3.30987C3.07889 3.16363 3.20164 3.05284 3.35298 3.01073C3.52724 2.96224 3.78991 3.08045 4.31525 3.31685L21.0325 10.8396C21.5469 11.071 21.804 11.1868 21.8835 11.3475C21.9526 11.4872 21.9526 11.6511 21.8835 11.7907C21.804 11.9515 21.5469 12.0672 21.0325 12.2987L4.32108 19.8188C3.79415 20.0559 3.53068 20.1745 3.35625 20.1258C3.20476 20.0835 3.082 19.9725 3.02484 19.8259C2.95902 19.6572 3.05074 19.3833 3.23417 18.8353L5.56909 11.8606C5.6005 11.7668 5.61621 11.7199 5.62248 11.6719C5.62805 11.6293 5.62811 11.5861 5.62265 11.5435C5.61649 11.4955 5.60091 11.4486 5.56974 11.3547L3.22769 4.2984Z" fill="#7E8892"/>
<path id="Vector 1" d="M12 11.5L5 9.5V13.5L12 11.5Z" fill="white"/>
</g>
</svg>
