<svg width="16" height="16" viewBox="0 0 16 16" fill="none" xmlns="http://www.w3.org/2000/svg">
<g id="&#208;&#147;&#208;&#187;&#208;&#176;&#208;&#183;">
<path id="icon" fill-rule="evenodd" clip-rule="evenodd" d="M5.31939 8C5.31939 9.44575 6.5294 10.6203 8.0144 10.6203C9.49941 10.6203 10.7094 9.44575 10.7094 8C10.7094 6.55425 9.49941 5.37972 8.0144 5.37972C6.5294 5.37972 5.31939 6.55425 5.31939 8ZM8.1244 4C10.4269 4 12.5769 5.33019 14.1719 7.74528C14.2744 7.90094 14.2744 8.09906 14.1719 8.25472C12.5744 10.6698 10.4269 12 8.1244 12C5.82189 12 3.67188 10.6698 2.07688 8.25472C1.97437 8.09906 1.97437 7.90094 2.07688 7.74528C3.67188 5.33019 5.82189 4 8.1244 4ZM6.33971 7.99963C6.33971 7.08454 7.09222 6.34161 8.01472 6.34161C8.93722 6.34161 9.68973 7.08689 9.68973 7.99963C9.68973 8.91473 8.93722 9.65765 8.01472 9.65765C7.08972 9.65765 6.33971 8.91237 6.33971 7.99963Z" fill="#7E8892"/>
</g>
</svg>
