<svg width="24" height="24" viewBox="0 0 24 24" fill="none" xmlns="http://www.w3.org/2000/svg">
<path d="M11.1111 4.88889H8.26667C6.77319 4.88889 6.02646 4.88889 5.45603 5.17954C4.95426 5.4352 4.54631 5.84315 4.29065 6.34491C4 6.91535 4 7.66208 4 9.15556V15.7333C4 17.2268 4 17.9735 4.29065 18.544C4.54631 19.0457 4.95426 19.4537 5.45603 19.7094C6.02646 20 6.77319 20 8.26667 20H14.8444C16.3379 20 17.0847 20 17.6551 19.7094C18.1569 19.4537 18.5648 19.0457 18.8205 18.544C19.1111 17.9735 19.1111 17.2268 19.1111 15.7333V12.8889M12.8889 16.4444H7.55556M14.6667 12.8889H7.55556M19.219 4.78105C20.2603 5.82245 20.2603 7.51089 19.219 8.55228C18.1776 9.59368 16.4891 9.59368 15.4477 8.55228C14.4063 7.51089 14.4063 5.82245 15.4477 4.78105C16.4891 3.73965 18.1776 3.73965 19.219 4.78105Z" stroke="#7E8892" stroke-width="1.5" stroke-linecap="round" stroke-linejoin="round"/>
</svg>
