<svg width="18" height="18" viewBox="0 0 18 18" fill="none" xmlns="http://www.w3.org/2000/svg">
<g id="&#208;&#164;&#208;&#184;&#208;&#187;&#209;&#140;&#209;&#130;&#209;&#128;">
<g id="Group 26156345">
<path id="Vector" d="M7.62502 3H3.87498C3.39249 3 3 3.39249 3 3.87498V6.125C3 6.60758 3.39249 7.00007 3.87498 7.00007H7.62502C8.1076 7.00007 8.50009 6.60758 8.50009 6.125V3.87498C8.50009 3.39249 8.1076 3 7.62502 3Z" fill="#7E8892"/>
<path id="Vector_2" d="M7.62502 7.99989H3.87498C3.39249 7.99989 3 8.39238 3 8.87496V14.125C3 14.6075 3.39249 15 3.87498 15H7.62502C8.1076 15 8.50009 14.6075 8.50009 14.125V8.87496C8.50009 8.39238 8.1076 7.99989 7.62502 7.99989Z" fill="#7E8892"/>
<path id="Vector_3" d="M14.125 10.9999H10.375C9.8924 10.9999 9.49991 11.3924 9.49991 11.875V14.125C9.49991 14.6075 9.8924 15 10.375 15H14.125C14.6075 15 15 14.6075 15 14.125V11.875C15 11.3924 14.6075 10.9999 14.125 10.9999Z" fill="#7E8892"/>
<path id="Vector_4" d="M14.125 3H10.375C9.8924 3 9.49991 3.39249 9.49991 3.87498V9.12503C9.49991 9.60761 9.8924 10.0001 10.375 10.0001H14.125C14.6075 10.0001 15 9.60761 15 9.12503V3.87498C15 3.39249 14.6075 3 14.125 3V3Z" fill="#7E8892"/>
</g>
</g>
</svg>
