<svg width="78" height="48" viewBox="0 0 78 48" fill="none" xmlns="http://www.w3.org/2000/svg">
<rect width="78" height="48" rx="8" fill="white"/>
<path d="M46.2584 13.461L45.9178 12.6369C47.0843 9.94647 47.007 9.86652 46.7804 9.63314L45.2903 8.14745L45.1424 8.02029H44.9698C44.8787 8.02029 44.6069 8.02029 42.3418 9.06873L41.5081 8.72571C40.4306 6 40.3201 6 40.0046 6H37.9024C37.5873 6 37.4648 5.99964 36.4655 8.73543L35.6354 9.07935C34.1046 8.41975 33.2069 8.08585 32.9646 8.08585L32.7659 8.09215L31.163 9.69582C30.9198 9.9292 30.8349 10.0115 32.0683 12.6603L31.7289 13.4815C29 14.5581 29 14.6625 29 14.9919V17.0953C29 17.4252 29 17.5415 31.7381 18.5424L32.0774 19.3621C30.9111 22.0511 30.9895 22.1319 31.216 22.363L32.7062 23.8505L32.8544 23.9806H33.0279C33.1175 23.9806 33.3859 23.9806 35.6543 22.9299L36.4865 23.2753C37.5642 26.0007 37.6749 26 37.9911 26H40.0936C40.4151 26 40.5291 26 41.5314 23.2656L42.3657 22.9213C43.8947 23.5811 44.7904 23.9161 45.0312 23.9161L45.2313 23.9103L46.8464 22.2968C47.0761 22.0602 47.1566 21.9784 45.9301 19.3405L46.2671 18.5187C49 17.441 49 17.3279 49 17.0059V14.9049C48.9997 14.5739 48.9997 14.4583 46.2584 13.461ZM38.9995 19.499C37.0718 19.499 35.5021 17.9283 35.5021 15.9984C35.5021 14.0698 37.0718 12.5006 38.9995 12.5006C40.9262 12.5006 42.4926 14.0702 42.4926 15.9984C42.4922 17.9283 40.9258 19.499 38.9995 19.499Z" fill="#7E8892"/>
<path d="M15.0234 35.1367V36.0566H10.4062V35.1367H15.0234ZM10.582 31.4688V40H9.45117V31.4688H10.582ZM16.0078 31.4688V40H14.8828V31.4688H16.0078ZM21.5918 38.916V35.6523C21.5918 35.4023 21.541 35.1855 21.4395 35.002C21.3418 34.8145 21.1934 34.6699 20.9941 34.5684C20.7949 34.4668 20.5488 34.416 20.2559 34.416C19.9824 34.416 19.7422 34.4629 19.5352 34.5566C19.332 34.6504 19.1719 34.7734 19.0547 34.9258C18.9414 35.0781 18.8848 35.2422 18.8848 35.418H17.8008C17.8008 35.1914 17.8594 34.9668 17.9766 34.7441C18.0938 34.5215 18.2617 34.3203 18.4805 34.1406C18.7031 33.957 18.9688 33.8125 19.2773 33.707C19.5898 33.5977 19.9375 33.543 20.3203 33.543C20.7812 33.543 21.1875 33.6211 21.5391 33.7773C21.8945 33.9336 22.1719 34.1699 22.3711 34.4863C22.5742 34.7988 22.6758 35.1914 22.6758 35.6641V38.6172C22.6758 38.8281 22.6934 39.0527 22.7285 39.291C22.7676 39.5293 22.8242 39.7344 22.8984 39.9062V40H21.7676C21.7129 39.875 21.6699 39.709 21.6387 39.502C21.6074 39.291 21.5918 39.0957 21.5918 38.916ZM21.7793 36.1562L21.791 36.918H20.6953C20.3867 36.918 20.1113 36.9434 19.8691 36.9941C19.627 37.041 19.4238 37.1133 19.2598 37.2109C19.0957 37.3086 18.9707 37.4316 18.8848 37.5801C18.7988 37.7246 18.7559 37.8945 18.7559 38.0898C18.7559 38.2891 18.8008 38.4707 18.8906 38.6348C18.9805 38.7988 19.1152 38.9297 19.2949 39.0273C19.4785 39.1211 19.7031 39.168 19.9688 39.168C20.3008 39.168 20.5938 39.0977 20.8477 38.957C21.1016 38.8164 21.3027 38.6445 21.4512 38.4414C21.6035 38.2383 21.6855 38.041 21.6973 37.8496L22.1602 38.3711C22.1328 38.5352 22.0586 38.7168 21.9375 38.916C21.8164 39.1152 21.6543 39.3066 21.4512 39.4902C21.252 39.6699 21.0137 39.8203 20.7363 39.9414C20.4629 40.0586 20.1543 40.1172 19.8105 40.1172C19.3809 40.1172 19.0039 40.0332 18.6797 39.8652C18.3594 39.6973 18.1094 39.4727 17.9297 39.1914C17.7539 38.9062 17.666 38.5879 17.666 38.2363C17.666 37.8965 17.7324 37.5977 17.8652 37.3398C17.998 37.0781 18.1895 36.8613 18.4395 36.6895C18.6895 36.5137 18.9902 36.3809 19.3418 36.291C19.6934 36.2012 20.0859 36.1562 20.5195 36.1562H21.7793ZM26.918 39.2266C27.1758 39.2266 27.4141 39.1738 27.6328 39.0684C27.8516 38.9629 28.0312 38.8184 28.1719 38.6348C28.3125 38.4473 28.3926 38.2344 28.4121 37.9961H29.4434C29.4238 38.3711 29.2969 38.7207 29.0625 39.0449C28.832 39.3652 28.5293 39.625 28.1543 39.8242C27.7793 40.0195 27.3672 40.1172 26.918 40.1172C26.4414 40.1172 26.0254 40.0332 25.6699 39.8652C25.3184 39.6973 25.0254 39.4668 24.791 39.1738C24.5605 38.8809 24.3867 38.5449 24.2695 38.166C24.1562 37.7832 24.0996 37.3789 24.0996 36.9531V36.707C24.0996 36.2812 24.1562 35.8789 24.2695 35.5C24.3867 35.1172 24.5605 34.7793 24.791 34.4863C25.0254 34.1934 25.3184 33.9629 25.6699 33.7949C26.0254 33.627 26.4414 33.543 26.918 33.543C27.4141 33.543 27.8477 33.6445 28.2188 33.8477C28.5898 34.0469 28.8809 34.3203 29.0918 34.668C29.3066 35.0117 29.4238 35.4023 29.4434 35.8398H28.4121C28.3926 35.5781 28.3184 35.3418 28.1895 35.1309C28.0645 34.9199 27.8926 34.752 27.6738 34.627C27.459 34.498 27.207 34.4336 26.918 34.4336C26.5859 34.4336 26.3066 34.5 26.0801 34.6328C25.8574 34.7617 25.6797 34.9375 25.5469 35.1602C25.418 35.3789 25.3242 35.623 25.2656 35.8926C25.2109 36.1582 25.1836 36.4297 25.1836 36.707V36.9531C25.1836 37.2305 25.2109 37.5039 25.2656 37.7734C25.3203 38.043 25.4121 38.2871 25.541 38.5059C25.6738 38.7246 25.8516 38.9004 26.0742 39.0332C26.3008 39.1621 26.582 39.2266 26.918 39.2266ZM33.2461 33.6602V40H32.1562V33.6602H33.2461ZM35.373 33.6602V34.5391H30.0703V33.6602H35.373ZM37.5234 34.8789V42.4375H36.4336V33.6602H37.4297L37.5234 34.8789ZM41.7949 36.7773V36.9004C41.7949 37.3613 41.7402 37.7891 41.6309 38.1836C41.5215 38.5742 41.3613 38.9141 41.1504 39.2031C40.9434 39.4922 40.6875 39.7168 40.3828 39.877C40.0781 40.0371 39.7285 40.1172 39.334 40.1172C38.9316 40.1172 38.5762 40.0508 38.2676 39.918C37.959 39.7852 37.6973 39.5918 37.4824 39.3379C37.2676 39.084 37.0957 38.7793 36.9668 38.4238C36.8418 38.0684 36.7559 37.668 36.709 37.2227V36.5664C36.7559 36.0977 36.8438 35.6777 36.9727 35.3066C37.1016 34.9355 37.2715 34.6191 37.4824 34.3574C37.6973 34.0918 37.957 33.8906 38.2617 33.7539C38.5664 33.6133 38.918 33.543 39.3164 33.543C39.7148 33.543 40.0684 33.6211 40.377 33.7773C40.6855 33.9297 40.9453 34.1484 41.1562 34.4336C41.3672 34.7188 41.5254 35.0605 41.6309 35.459C41.7402 35.8535 41.7949 36.293 41.7949 36.7773ZM40.7051 36.9004V36.7773C40.7051 36.4609 40.6719 36.1641 40.6055 35.8867C40.5391 35.6055 40.4355 35.3594 40.2949 35.1484C40.1582 34.9336 39.9824 34.7656 39.7676 34.6445C39.5527 34.5195 39.2969 34.457 39 34.457C38.7266 34.457 38.4883 34.5039 38.2852 34.5977C38.0859 34.6914 37.916 34.8184 37.7754 34.9785C37.6348 35.1348 37.5195 35.3145 37.4297 35.5176C37.3438 35.7168 37.2793 35.9238 37.2363 36.1387V37.6562C37.3145 37.9297 37.4238 38.1875 37.5645 38.4297C37.7051 38.668 37.8926 38.8613 38.127 39.0098C38.3613 39.1543 38.6562 39.2266 39.0117 39.2266C39.3047 39.2266 39.5566 39.166 39.7676 39.0449C39.9824 38.9199 40.1582 38.75 40.2949 38.5352C40.4355 38.3203 40.5391 38.0742 40.6055 37.7969C40.6719 37.5156 40.7051 37.2168 40.7051 36.9004ZM42.8906 36.9004V36.7656C42.8906 36.3086 42.957 35.8848 43.0898 35.4941C43.2227 35.0996 43.4141 34.7578 43.6641 34.4688C43.9141 34.1758 44.2168 33.9492 44.5723 33.7891C44.9277 33.625 45.3262 33.543 45.7676 33.543C46.2129 33.543 46.6133 33.625 46.9688 33.7891C47.3281 33.9492 47.6328 34.1758 47.8828 34.4688C48.1367 34.7578 48.3301 35.0996 48.4629 35.4941C48.5957 35.8848 48.6621 36.3086 48.6621 36.7656V36.9004C48.6621 37.3574 48.5957 37.7812 48.4629 38.1719C48.3301 38.5625 48.1367 38.9043 47.8828 39.1973C47.6328 39.4863 47.3301 39.7129 46.9746 39.877C46.623 40.0371 46.2246 40.1172 45.7793 40.1172C45.334 40.1172 44.9336 40.0371 44.5781 39.877C44.2227 39.7129 43.918 39.4863 43.6641 39.1973C43.4141 38.9043 43.2227 38.5625 43.0898 38.1719C42.957 37.7812 42.8906 37.3574 42.8906 36.9004ZM43.9746 36.7656V36.9004C43.9746 37.2168 44.0117 37.5156 44.0859 37.7969C44.1602 38.0742 44.2715 38.3203 44.4199 38.5352C44.5723 38.75 44.7617 38.9199 44.9883 39.0449C45.2148 39.166 45.4785 39.2266 45.7793 39.2266C46.0762 39.2266 46.3359 39.166 46.5586 39.0449C46.7852 38.9199 46.9727 38.75 47.1211 38.5352C47.2695 38.3203 47.3809 38.0742 47.4551 37.7969C47.5332 37.5156 47.5723 37.2168 47.5723 36.9004V36.7656C47.5723 36.4531 47.5332 36.1582 47.4551 35.8809C47.3809 35.5996 47.2676 35.3516 47.1152 35.1367C46.9668 34.918 46.7793 34.7461 46.5527 34.6211C46.3301 34.4961 46.0684 34.4336 45.7676 34.4336C45.4707 34.4336 45.209 34.4961 44.9824 34.6211C44.7598 34.7461 44.5723 34.918 44.4199 35.1367C44.2715 35.3516 44.1602 35.5996 44.0859 35.8809C44.0117 36.1582 43.9746 36.4531 43.9746 36.7656ZM51.1934 38.2832L54.1172 33.6602H55.207V40H54.1172V35.377L51.1934 40H50.1152V33.6602H51.1934V38.2832ZM53.5254 31.3633H54.4043C54.4043 31.668 54.334 31.9395 54.1934 32.1777C54.0527 32.4121 53.8516 32.5957 53.5898 32.7285C53.3281 32.8613 53.0176 32.9277 52.6582 32.9277C52.1152 32.9277 51.6855 32.7832 51.3691 32.4941C51.0566 32.2012 50.9004 31.8242 50.9004 31.3633H51.7793C51.7793 31.5938 51.8457 31.7969 51.9785 31.9727C52.1113 32.1484 52.3379 32.2363 52.6582 32.2363C52.9707 32.2363 53.1934 32.1484 53.3262 31.9727C53.459 31.7969 53.5254 31.5938 53.5254 31.3633ZM58.125 33.6602V40H57.041V33.6602H58.125ZM62.2852 33.6602L59.2793 37.293H57.7617L57.5977 36.3438H58.8398L60.9668 33.6602H62.2852ZM61.1191 40L58.7871 37.1289L59.4844 36.3438L62.4961 40H61.1191ZM64.6113 38.2832L67.5352 33.6602H68.625V40H67.5352V35.377L64.6113 40H63.5332V33.6602H64.6113V38.2832Z" fill="#1B1D23"/>
</svg>
