<svg width="24" height="24" viewBox="0 0 24 24" fill="none" xmlns="http://www.w3.org/2000/svg">
<g id="Group 1321314935">
<circle id="Ellipse 231" cx="12" cy="12" r="12" fill="#F2F2F7"/>
<path id="Union" fill-rule="evenodd" clip-rule="evenodd" d="M12.0498 18C12.6021 18 13.0498 17.5523 13.0498 17L13.0498 11C13.0498 10.4477 12.6021 10 12.0498 10C11.4975 10 11.0498 10.4477 11.0498 11L11.0498 17C11.0498 17.5523 11.4975 18 12.0498 18ZM12.0488 6C11.4965 6 11.0488 6.44771 11.0488 7C11.0488 7.55228 11.4965 8 12.0488 8C12.6011 8 13.0488 7.55228 13.0488 7C13.0488 6.44771 12.6011 6 12.0488 6Z" fill="#7E8892"/>
</g>
</svg>
