<svg width="16" height="16" viewBox="0 0 16 16" fill="none" xmlns="http://www.w3.org/2000/svg">
<g id="Frame 277132284">
<path id="Icon" d="M5.5636 13V7.5M3 8.5V12C3 12.5523 3.45911 13 4.02544 13H10.9093C11.6685 13 12.3142 12.4598 12.4296 11.7281L12.9818 8.22809C13.1251 7.31945 12.4042 6.5 11.4615 6.5H9.66536C9.3822 6.5 9.15264 6.27614 9.15264 6V4.23292C9.15264 3.552 8.5866 3 7.88836 3C7.72181 3 7.57089 3.09565 7.50325 3.24406L5.69893 7.20307C5.61664 7.38363 5.43302 7.5 5.2304 7.5H4.02544C3.45911 7.5 3 7.94772 3 8.5Z" stroke="#7E8892" stroke-width="1.5" stroke-linecap="round" stroke-linejoin="round"/>
</g>
</svg>
