<svg width="24" height="24" viewBox="0 0 24 24" fill="none" xmlns="http://www.w3.org/2000/svg">
<path d="M13.9107 3.24251V6.96C13.9107 7.46405 13.9107 7.71607 14.0128 7.90859C14.1027 8.07794 14.2461 8.21562 14.4225 8.30191C14.6231 8.4 14.8856 8.4 15.4107 8.4H19.283M19.5357 10.1894V16.68C19.5357 18.1921 19.5357 18.9482 19.2291 19.5258C18.9595 20.0338 18.5292 20.4469 18 20.7057C17.3984 21 16.6108 21 15.0357 21H9.03566C7.46051 21 7.13728 21 6.53565 20.7057C6.00645 20.4469 5.57619 20.0338 5.30654 19.5258C5 18.9482 5 18.1921 5 16.68V7.32C5 5.80786 5 5.05179 5.30654 4.47423C5.57619 3.96619 6.00645 3.55314 6.53565 3.29429C7.13728 3 7.46051 3 9.03566 3H12.0467C12.7346 3 13.0786 3 13.4022 3.0746C13.6892 3.14074 13.9636 3.24983 14.2152 3.39787C14.499 3.56484 14.7423 3.79833 15.2287 4.2653L18.2176 7.1347C18.7041 7.60167 18.9473 7.83516 19.1212 8.10763C19.2754 8.34921 19.3891 8.61258 19.4579 8.88807C19.5357 9.19881 19.5357 9.52901 19.5357 10.1894Z" stroke="#7E8892" stroke-width="1.5" stroke-linecap="round" stroke-linejoin="round"/>
</svg>
