<svg width="24" height="24" viewBox="0 0 24 24" fill="none" xmlns="http://www.w3.org/2000/svg">
<path d="M8.66667 18.1356V7.01724C8.66667 6.55747 8.66667 6.32758 8.7494 6.14113C8.82233 5.97677 8.93977 5.83662 9.08814 5.73687C9.25646 5.62372 9.48076 5.58592 9.92935 5.51034L18.2405 4.10995C18.8458 4.00795 19.1485 3.95695 19.3844 4.04553C19.5914 4.12326 19.7649 4.27187 19.8748 4.46552C20 4.68619 20 4.99641 20 5.61686V16.226M8.66667 18.1356C8.66667 19.7176 7.39814 21 5.83333 21C4.26853 21 3 19.7176 3 18.1356C3 16.5536 4.26853 15.2712 5.83333 15.2712C7.39814 15.2712 8.66667 16.5536 8.66667 18.1356ZM20 16.226C20 17.8079 18.7315 19.0904 17.1667 19.0904C15.6019 19.0904 14.3333 17.8079 14.3333 16.226C14.3333 14.644 15.6019 13.3615 17.1667 13.3615C18.7315 13.3615 20 14.644 20 16.226Z" stroke="#7E8892" stroke-width="1.5" stroke-linecap="round" stroke-linejoin="round"/>
</svg>
