<svg width="24" height="24" viewBox="0 0 24 24" fill="none" xmlns="http://www.w3.org/2000/svg">
<path d="M12 3.94737H7.54737C5.95564 3.94737 5.15978 3.94737 4.55182 4.25714C4.01704 4.52962 3.58225 4.96441 3.30977 5.49919C3 6.10714 3 6.90301 3 8.49474V16.4526C3 18.0444 3 18.8402 3.30977 19.4482C3.58225 19.983 4.01704 20.4177 4.55182 20.6902C5.15978 21 5.95564 21 7.54737 21H16.2632C17.1442 21 17.5847 21 17.9461 20.9032C18.9269 20.6404 19.693 19.8743 19.9558 18.8935C20.0526 18.5321 20.0526 18.0916 20.0526 17.2105M18.1579 8.68421V3M15.3158 5.84211H21M10.1053 9.15789C10.1053 10.2043 9.25696 11.0526 8.21053 11.0526C7.16409 11.0526 6.31579 10.2043 6.31579 9.15789C6.31579 8.11146 7.16409 7.26316 8.21053 7.26316C9.25696 7.26316 10.1053 8.11146 10.1053 9.15789ZM14.359 12.3961L6.3453 19.6813C5.89455 20.0911 5.66918 20.296 5.64925 20.4734C5.63197 20.6273 5.69096 20.7799 5.80723 20.8821C5.94137 21 6.24595 21 6.85511 21H15.7478C17.1112 21 17.7929 21 18.3283 20.7709C19.0005 20.4834 19.536 19.9479 19.8236 19.2757C20.0526 18.7403 20.0526 18.0586 20.0526 16.6951C20.0526 16.2364 20.0526 16.007 20.0025 15.7934C19.9395 15.525 19.8186 15.2735 19.6483 15.0566C19.5129 14.884 19.3338 14.7407 18.9755 14.4541L16.3255 12.3341C15.967 12.0473 15.7877 11.9039 15.5903 11.8533C15.4163 11.8087 15.2332 11.8144 15.0624 11.8699C14.8686 11.9329 14.6987 12.0873 14.359 12.3961Z" stroke="#7E8892" stroke-width="1.5" stroke-linecap="round" stroke-linejoin="round"/>
</svg>
