<svg width="24" height="24" viewBox="0 0 24 24" fill="none" xmlns="http://www.w3.org/2000/svg">
<path d="M12 21C16.9706 21 21 16.9706 21 12C21 7.02944 16.9706 3 12 3C7.02944 3 3 7.02944 3 12C3 16.9706 7.02944 21 12 21Z" stroke="#7E8892" stroke-width="1.5" stroke-linecap="round" stroke-linejoin="round"/>
<path d="M9.75 9.2688C9.75 8.83924 9.75 8.62446 9.83977 8.50456C9.918 8.40007 10.0377 8.33469 10.1679 8.32539C10.3173 8.31472 10.498 8.43086 10.8593 8.66315L15.1079 11.3944C15.4214 11.5959 15.5782 11.6967 15.6323 11.8249C15.6797 11.9368 15.6797 12.0632 15.6323 12.1751C15.5782 12.3033 15.4214 12.4041 15.1079 12.6056L10.8593 15.3368C10.498 15.5691 10.3173 15.6853 10.1679 15.6746C10.0377 15.6653 9.918 15.5999 9.83977 15.4954C9.75 15.3755 9.75 15.1608 9.75 14.7312V9.2688Z" stroke="#7E8892" stroke-width="1.5" stroke-linecap="round" stroke-linejoin="round"/>
</svg>
