<svg width="24" height="24" viewBox="0 0 24 24" fill="none" xmlns="http://www.w3.org/2000/svg">
<path d="M5.6 8.88624C5.46879 8.88295 5.37352 8.87557 5.28786 8.859C4.65315 8.73626 4.15699 8.25388 4.03074 7.63681C4 7.48654 4 7.30584 4 6.94444C4 6.58305 4 6.40235 4.03074 6.25208C4.15699 5.63501 4.65315 5.15263 5.28786 5.02989C5.44241 5 5.62828 5 6 5H18C18.3717 5 18.5576 5 18.7121 5.02989C19.3468 5.15263 19.843 5.63501 19.9693 6.25208C20 6.40235 20 6.58305 20 6.94444C20 7.30584 20 7.48654 19.9693 7.63681C19.843 8.25388 19.3468 8.73626 18.7121 8.859C18.6265 8.87557 18.5312 8.88295 18.4 8.88624M10.4 12.7778H13.6M5.6 8.88889H18.4V15.2667C18.4 16.5735 18.4 17.2269 18.1384 17.726C17.9083 18.165 17.5412 18.522 17.0896 18.7457C16.5762 19 15.9041 19 14.56 19H9.44C8.09587 19 7.42381 19 6.91042 18.7457C6.45883 18.522 6.09168 18.165 5.86158 17.726C5.6 17.2269 5.6 16.5735 5.6 15.2667V8.88889Z" stroke="#7E8892" stroke-width="1.5" stroke-linecap="round" stroke-linejoin="round"/>
</svg>
