<svg width="24" height="24" viewBox="0 0 24 24" fill="none" xmlns="http://www.w3.org/2000/svg">
<g id="24px/settings2">
<path id="icon" d="M19.2584 9.46098L18.9178 8.63692C20.0843 5.94647 20.007 5.86652 19.7804 5.63314L18.2903 4.14745L18.1424 4.02029H17.9698C17.8787 4.02029 17.6069 4.02029 15.3418 5.06873L14.5081 4.72571C13.4306 2 13.3201 2 13.0046 2H10.9024C10.5873 2 10.4648 1.99964 9.46548 4.73543L8.63538 5.07935C7.10461 4.41975 6.20686 4.08585 5.96458 4.08585L5.76586 4.09215L4.16303 5.69582C3.91981 5.9292 3.83494 6.01149 5.0683 8.66031L4.72893 9.48149C2 10.5581 2 10.6625 2 10.9919V13.0953C2 13.4252 2 13.5415 4.7381 14.5424L5.07741 15.3621C3.91111 18.0511 3.98946 18.1319 4.21604 18.363L5.7062 19.8505L5.85443 19.9806H6.02788C6.11752 19.9806 6.38595 19.9806 8.6543 18.9299L9.48652 19.2753C10.5642 22.0007 10.6749 22 10.9911 22H13.0936C13.4151 22 13.5291 22 14.5314 19.2656L15.3657 18.9213C16.8947 19.5811 17.7904 19.9161 18.0312 19.9161L18.2313 19.9103L19.8464 18.2968C20.0761 18.0602 20.1566 17.9784 18.9301 15.3405L19.2671 14.5187C22 13.441 22 13.3279 22 13.0059V10.9049C21.9997 10.5739 21.9997 10.4583 19.2584 9.46098ZM11.9995 15.499C10.0718 15.499 8.50207 13.9283 8.50207 11.9984C8.50207 10.0698 10.0718 8.50064 11.9995 8.50064C13.9262 8.50064 15.4926 10.0702 15.4926 11.9984C15.4922 13.9283 13.9258 15.499 11.9995 15.499Z" fill="#7E8892"/>
</g>
</svg>
