<svg width="16" height="16" viewBox="0 0 16 16" fill="none" xmlns="http://www.w3.org/2000/svg">
<g id="Frame 277132284">
<path id="Icon" d="M10.4364 3L10.4364 8.5M13 7.5L13 4C13 3.44772 12.5409 3 11.9746 3L5.09065 3C4.33146 3 3.68582 3.54016 3.57038 4.27191L3.01822 7.77191C2.87487 8.68055 3.59578 9.5 4.53849 9.5L6.33464 9.5C6.6178 9.5 6.84736 9.72386 6.84736 10L6.84736 11.7671C6.84736 12.448 7.4134 13 8.11164 13C8.27819 13 8.42911 12.9044 8.49675 12.7559L10.3011 8.79693C10.3834 8.61637 10.567 8.5 10.7696 8.5L11.9746 8.5C12.5409 8.5 13 8.05228 13 7.5Z" stroke="#7E8892" stroke-width="1.5" stroke-linecap="round" stroke-linejoin="round"/>
</g>
</svg>
